ply
format ascii 1.0
comment VCGLIB generated
element vertex 153
property float x
property float y
property float z
property float nx
property float ny
property float nz
element face 240
property list uchar int vertex_indices
end_header
38.0097 57.2906 48.6508 -0.15619 2.7784 1.40651 
38.0097 60.4633 42.3836 -0.308972 5.45814 3.07332 
27.6334 60.1381 42.3836 -0.0856084 5.46597 3.07866 
27.6334 56.9654 48.6508 -0.0435072 2.78974 1.41226 
17.2571 60.1381 42.3836 0 5.46843 3.08162 
17.2571 56.9654 48.6508 0 2.8029 1.41892 
6.88086 60.1381 42.3836 0 5.46843 3.08162 
6.88086 56.9654 48.6508 0 2.8029 1.41892 
38.0097 64.3726 36.1164 -0.219805 5.18081 3.52907 
27.6334 64.0474 36.1164 -0.0799634 5.10529 3.6351 
17.2571 64.0474 36.1164 0 5.10737 3.63931 
6.88086 64.0474 36.1164 0 5.10737 3.63931 
38.0097 69.1206 29.8492 -0.00571778 4.7641 4.07932 
27.6334 69.1206 29.8492 -0.0251062 4.72519 4.13165 
17.2571 69.1206 29.8492 -0.002471 4.71996 4.13989 
6.88086 69.1206 29.8492 0 4.72567 4.13387 
38.0097 75.1714 23.582 -0.0875775 4.55045 4.33062 
27.6334 75.124 23.582 -0.0302454 4.66143 4.20854 
17.2571 75.0808 23.582 -0.0233111 4.70217 4.16105 
6.88086 75.0405 23.582 9.27512e-010 4.72364 4.13646 
38.0097 81.0328 17.3148 -0.213431 4.59721 -0.00584752 
27.6334 80.4867 17.3148 -0.135469 4.78986 0.0335211 
17.2571 80.2515 17.3148 -0.0687823 4.85172 0.0150232 
6.88086 80.1076 17.3148 3.80002e-009 4.9051 0.0110157 
38.0097 75.1728 11.0476 -0.0167178 4.55444 -4.32813 
27.6334 75.1259 11.0476 -0.0495432 4.63713 -4.23666 
17.2571 75.0831 11.0476 -0.0290997 4.69362 -4.17178 
6.88086 75.0432 11.0476 9.57431e-010 4.71853 -4.14313 
38.0097 69.1206 4.78045 -0.0759811 4.78159 -4.0537 
27.6334 69.1206 4.78045 -0.00284726 4.7083 -4.15211 
17.2571 69.1206 4.78045 -0.00261061 4.71621 -4.14384 
6.88086 69.1206 4.78045 2.87857e-010 4.72197 -4.13778 
38.0097 64.3726 -1.48675 -0.292215 5.16128 -3.55093 
27.6334 64.0474 -1.48675 -0.0582059 5.1185 -3.61928 
17.2571 64.0474 -1.48675 0 5.10737 -3.63931 
6.88086 64.0474 -1.48675 0 5.10737 -3.63931 
38.0097 60.4633 -7.75394 -0.308972 5.45814 -3.07332 
27.6334 60.1381 -7.75394 -0.0856078 5.46597 -3.07866 
17.2571 60.1381 -7.75394 0 5.46843 -3.08162 
6.88086 60.1381 -7.75394 0 5.46843 -3.08162 
52.5673 58.8081 -14.0211 -0.501399 2.71926 -1.37658 
52.5673 61.9808 -7.75395 1.06015 5.56252 -0.927374 
58.7623 60.3256 -14.0211 0.348734 1.52666 -0.118131 
38.0097 57.2906 -14.0211 -0.15619 2.7784 -1.40651 
27.6334 56.9654 -14.0211 -0.0435064 2.78974 -1.41226 
17.2571 56.9654 -14.0211 0 2.8029 -1.41892 
6.88086 56.9654 -14.0211 0 2.8029 -1.41892 
45.9427 61.1136 42.3836 -0.578705 5.44166 3.06422 
45.9427 57.941 48.6508 -0.292682 2.77058 1.40255 
45.9427 65.023 36.1164 0.834582 5.26253 2.02049 
45.9427 69.1206 29.8492 -0.0542315 2.41023 1.9991 
45.9427 75.214 23.582 -0.00912856 2.23066 2.21198 
45.9427 81.5753 17.3148 -0.115515 2.15813 -0.0221076 
45.9427 75.2148 11.0476 -0.0450644 2.25227 -2.18986 
45.9427 69.1206 4.78045 -0.00280909 2.44288 -1.9526 
45.9427 65.023 -1.48675 0.721488 5.32252 -2.12122 
45.9427 61.1136 -7.75394 -0.578707 5.44165 -3.06422 
45.9427 57.941 -14.0211 -0.292683 2.77058 -1.40255 
52.5673 61.9808 42.3836 1.26819 5.43464 0.843518 
52.5673 58.8081 48.6508 -0.501399 2.71926 1.37658 
58.7623 60.3256 48.6508 0.328738 1.52434 0.0776299 
52.5673 60.9441 36.1164 3.34503 5.28216 -0.495385 
52.5673 60.5633 29.8492 3.34062 5.30571 -0.167521 
45.9427 64.9991 26.7156 1.73345 2.61988 -0.0259441 
45.9427 64.9998 31.416 1.62638 2.68806 -0.0268037 
58.7623 57.6647 40.8168 1.68358 2.48515 -0.47327 
58.7623 57.052 32.9828 1.57715 2.66618 -0.130359 
45.9427 64.9991 7.91404 1.74871 2.61001 0.000796077 
45.9427 64.9991 17.3148 1.75004 2.60902 -3.74073e-012 
52.5673 60.5555 17.3148 3.29838 5.34254 1.18885e-006 
52.5673 60.5633 4.78045 3.30465 5.33278 0.131578 
58.7623 57.0442 17.3148 1.54906 2.73257 7.77367e-007 
58.7623 57.052 1.64685 1.56044 2.67708 0.118927 
45.9427 64.9998 3.21365 1.70751 2.63712 0.0386199 
52.5673 60.9441 -1.48675 3.32508 5.30485 0.469252 
58.7623 57.6647 -6.18714 1.60101 2.54825 0.452777 
52.5673 61.3253 39.25 3.22118 5.31754 -0.81114 
45.9427 65.0023 33.7662 1.53234 2.74681 -0.00930459 
58.7623 58.6647 44.7338 1.65452 2.43659 -0.800876 
45.9427 65.0023 0.863456 1.60031 2.70545 0.0827787 
52.5673 61.3253 -4.62035 3.40214 5.17842 0.954832 
58.7623 58.6647 -10.1041 1.75974 2.33913 0.853076 
-24.248 57.2906 48.6508 0.15619 2.7784 1.40651 
-13.8717 56.9654 48.6508 0.0435072 2.78974 1.41226 
-13.8717 60.1381 42.3836 0.0856084 5.46597 3.07866 
-24.248 60.4633 42.3836 0.308972 5.45814 3.07332 
-3.49543 56.9654 48.6508 0 2.8029 1.41892 
-3.49543 60.1381 42.3836 0 5.46843 3.08162 
-13.8717 64.0474 36.1164 0.0799634 5.10529 3.6351 
-24.248 64.3726 36.1164 0.219805 5.18081 3.52907 
-3.49543 64.0474 36.1164 0 5.10737 3.63931 
-13.8717 69.1206 29.8492 0.0251062 4.72519 4.13165 
-24.248 69.1206 29.8492 0.00571778 4.7641 4.07932 
-3.49543 69.1206 29.8492 0.002471 4.71996 4.13989 
-13.8717 75.124 23.582 0.0302454 4.66143 4.20854 
-24.248 75.1714 23.582 0.0875775 4.55045 4.33062 
-3.49543 75.0808 23.582 0.0233111 4.70217 4.16105 
-13.8717 80.4867 17.3148 0.135469 4.78986 0.0335211 
-24.248 81.0328 17.3148 0.213431 4.59721 -0.00584751 
-3.49543 80.2515 17.3148 0.0687823 4.85172 0.0150229 
-13.8717 75.1259 11.0476 0.0495432 4.63713 -4.23666 
-24.248 75.1728 11.0476 0.0167178 4.55444 -4.32813 
-3.49543 75.0831 11.0476 0.0290997 4.69362 -4.17178 
-13.8717 69.1206 4.78045 0.00284726 4.7083 -4.15211 
-24.248 69.1206 4.78045 0.0759811 4.78159 -4.0537 
-3.49543 69.1206 4.78045 0.00261061 4.71621 -4.14384 
-13.8717 64.0474 -1.48675 0.0582059 5.1185 -3.61928 
-24.248 64.3726 -1.48675 0.292215 5.16128 -3.55093 
-3.49543 64.0474 -1.48675 0 5.10737 -3.63931 
-13.8717 60.1381 -7.75394 0.0856078 5.46597 -3.07866 
-24.248 60.4633 -7.75394 0.308972 5.45814 -3.07332 
-3.49543 60.1381 -7.75394 0 5.46843 -3.08162 
-38.8056 58.8081 -14.0211 0.501399 2.71926 -1.37658 
-45.0006 60.3256 -14.0211 -0.348734 1.52666 -0.118131 
-38.8056 61.9808 -7.75395 -1.06015 5.56252 -0.927374 
-13.8717 56.9654 -14.0211 0.0435064 2.78974 -1.41226 
-24.248 57.2906 -14.0211 0.15619 2.7784 -1.40651 
-3.49543 56.9654 -14.0211 0 2.8029 -1.41892 
-32.181 61.1136 42.3836 0.578705 5.44166 3.06422 
-32.181 57.941 48.6508 0.292682 2.77058 1.40255 
-32.181 65.023 36.1164 -0.834582 5.26253 2.02049 
-32.181 69.1206 29.8492 0.0542315 2.41023 1.9991 
-32.181 75.214 23.582 0.00912856 2.23066 2.21198 
-32.181 81.5753 17.3148 0.115515 2.15813 -0.0221076 
-32.181 75.2148 11.0476 0.0450644 2.25227 -2.18986 
-32.181 69.1206 4.78045 0.00280909 2.44288 -1.9526 
-32.181 65.023 -1.48675 -0.721488 5.32252 -2.12122 
-32.181 61.1136 -7.75394 0.578707 5.44165 -3.06422 
-32.181 57.941 -14.0211 0.292683 2.77058 -1.40255 
-38.8056 61.9808 42.3836 -1.26819 5.43464 0.843518 
-38.8056 58.8081 48.6508 0.501399 2.71926 1.37658 
-45.0006 60.3256 48.6508 -0.328738 1.52434 0.0776299 
-38.8056 60.9441 36.1164 -3.34503 5.28216 -0.495385 
-32.181 64.9998 31.416 -1.62638 2.68806 -0.0268037 
-32.181 64.9991 26.7156 -1.73345 2.61988 -0.0259441 
-38.8056 60.5633 29.8492 -3.34062 5.30571 -0.167521 
-45.0006 57.6647 40.8168 -1.68358 2.48515 -0.47327 
-45.0006 57.052 32.9828 -1.57715 2.66618 -0.130359 
-32.181 64.9991 7.91404 -1.74871 2.61001 0.000796077 
-38.8056 60.5633 4.78045 -3.30465 5.33278 0.131578 
-38.8056 60.5555 17.3148 -3.29838 5.34254 1.18885e-006 
-32.181 64.9991 17.3148 -1.75004 2.60902 -3.74073e-012 
-45.0006 57.052 1.64685 -1.56044 2.67708 0.118927 
-45.0006 57.0442 17.3148 -1.54906 2.73257 7.77443e-007 
-32.181 64.9998 3.21365 -1.70751 2.63712 0.0386199 
-38.8056 60.9441 -1.48675 -3.32508 5.30485 0.469252 
-45.0006 57.6647 -6.18714 -1.60101 2.54825 0.452777 
-38.8056 61.3253 39.25 -3.22118 5.31754 -0.81114 
-32.181 65.0023 33.7662 -1.53234 2.74681 -0.00930459 
-45.0006 58.6647 44.7338 -1.65452 2.43659 -0.800876 
-32.181 65.0023 0.863456 -1.60031 2.70545 0.0827787 
-38.8056 61.3253 -4.62035 -3.40214 5.17842 0.954832 
-45.0006 58.6647 -10.1041 -1.75974 2.33913 0.853076 
3 0 1 2 
3 0 2 3 
3 3 2 4 
3 3 4 5 
3 5 4 6 
3 5 6 7 
3 1 8 9 
3 1 9 2 
3 2 9 10 
3 2 10 4 
3 4 10 11 
3 4 11 6 
3 8 12 13 
3 8 13 9 
3 9 13 14 
3 9 14 10 
3 10 14 15 
3 10 15 11 
3 12 16 17 
3 12 17 13 
3 13 17 18 
3 13 18 14 
3 14 18 19 
3 14 19 15 
3 16 20 21 
3 16 21 17 
3 17 21 22 
3 17 22 18 
3 18 22 23 
3 18 23 19 
3 20 24 25 
3 20 25 21 
3 21 25 26 
3 21 26 22 
3 22 26 27 
3 22 27 23 
3 24 28 29 
3 24 29 25 
3 25 29 30 
3 25 30 26 
3 26 30 31 
3 26 31 27 
3 28 32 33 
3 28 33 29 
3 29 33 34 
3 29 34 30 
3 30 34 35 
3 30 35 31 
3 32 36 37 
3 32 37 33 
3 33 37 38 
3 33 38 34 
3 34 38 39 
3 34 39 35 
3 40 41 42 
3 36 43 44 
3 36 44 37 
3 37 44 45 
3 37 45 38 
3 38 45 46 
3 38 46 39 
3 0 48 47 
3 0 47 1 
3 49 8 1 
3 49 1 47 
3 50 12 8 
3 50 8 49 
3 51 16 12 
3 51 12 50 
3 52 20 16 
3 52 16 51 
3 53 24 20 
3 53 20 52 
3 54 28 24 
3 54 24 53 
3 55 32 28 
3 55 28 54 
3 56 36 32 
3 56 32 55 
3 57 43 36 
3 57 36 56 
3 58 47 48 
3 58 48 59 
3 41 56 55 
3 57 56 41 
3 57 41 40 
3 58 59 60 
3 49 47 58 
3 61 62 63 
3 61 63 64 
3 65 66 62 
3 65 62 61 
3 67 68 69 
3 67 69 70 
3 70 69 71 
3 70 71 72 
3 63 62 69 
3 63 69 68 
3 62 66 71 
3 62 71 69 
3 73 67 70 
3 73 70 74 
3 74 70 72 
3 74 72 75 
3 76 77 49 
3 76 49 58 
3 76 61 64 
3 76 64 77 
3 78 76 58 
3 78 58 60 
3 78 65 61 
3 78 61 76 
3 79 80 41 
3 79 41 55 
3 79 73 74 
3 79 74 80 
3 80 81 42 
3 80 42 41 
3 80 74 75 
3 80 75 81 
3 82 83 84 
3 82 84 85 
3 83 86 87 
3 83 87 84 
3 86 7 6 
3 86 6 87 
3 85 84 88 
3 85 88 89 
3 84 87 90 
3 84 90 88 
3 87 6 11 
3 87 11 90 
3 89 88 91 
3 89 91 92 
3 88 90 93 
3 88 93 91 
3 90 11 15 
3 90 15 93 
3 92 91 94 
3 92 94 95 
3 91 93 96 
3 91 96 94 
3 93 15 19 
3 93 19 96 
3 95 94 97 
3 95 97 98 
3 94 96 99 
3 94 99 97 
3 96 19 23 
3 96 23 99 
3 98 97 100 
3 98 100 101 
3 97 99 102 
3 97 102 100 
3 99 23 27 
3 99 27 102 
3 101 100 103 
3 101 103 104 
3 100 102 105 
3 100 105 103 
3 102 27 31 
3 102 31 105 
3 104 103 106 
3 104 106 107 
3 103 105 108 
3 103 108 106 
3 105 31 35 
3 105 35 108 
3 107 106 109 
3 107 109 110 
3 106 108 111 
3 106 111 109 
3 108 35 39 
3 108 39 111 
3 112 113 114 
3 110 109 115 
3 110 115 116 
3 109 111 117 
3 109 117 115 
3 111 39 46 
3 111 46 117 
3 118 119 82 
3 118 82 85 
3 120 118 85 
3 120 85 89 
3 121 120 89 
3 121 89 92 
3 122 121 92 
3 122 92 95 
3 123 122 95 
3 123 95 98 
3 124 123 98 
3 124 98 101 
3 125 124 101 
3 125 101 104 
3 126 125 104 
3 126 104 107 
3 127 126 107 
3 127 107 110 
3 128 127 110 
3 128 110 116 
3 129 130 119 
3 129 119 118 
3 114 126 127 
3 128 112 114 
3 128 114 127 
3 129 131 130 
3 120 129 118 
3 132 133 134 
3 132 134 135 
3 136 132 135 
3 136 135 137 
3 138 139 140 
3 138 140 141 
3 139 142 143 
3 139 143 140 
3 134 141 140 
3 134 140 135 
3 135 140 143 
3 135 143 137 
3 144 145 139 
3 144 139 138 
3 145 146 142 
3 145 142 139 
3 147 129 120 
3 147 120 148 
3 147 148 133 
3 147 133 132 
3 149 131 129 
3 149 129 147 
3 149 147 132 
3 149 132 136 
3 150 126 114 
3 150 114 151 
3 150 151 145 
3 150 145 144 
3 151 114 113 
3 151 113 152 
3 151 152 146 
3 151 146 145 
